<?xml version="1.0" standalone="no"?>
<!DOCTYPE svg PUBLIC "-//W3C//DTD SVG 20010904//EN"
 "http://www.w3.org/TR/2001/REC-SVG-20010904/DTD/svg10.dtd">
<svg version="1.0" xmlns="http://www.w3.org/2000/svg"
 width="715.000000pt" height="399.000000pt" viewBox="0 0 715.000000 399.000000"
 preserveAspectRatio="xMidYMid meet">

<g transform="translate(0.000000,399.000000) scale(0.100000,-0.100000)"
fill="#000000" stroke="none">
<path d="M3512 3453 l3 -416 125 -67 c382 -203 491 -263 488 -272 -2 -6 -33
-26 -68 -45 -36 -19 -106 -56 -157 -84 l-92 -49 -145 80 c-79 44 -147 80 -150
80 -3 0 -6 -71 -6 -159 0 -154 1 -159 23 -173 47 -31 267 -148 277 -148 7 0
78 39 158 86 81 48 213 126 294 173 l147 86 1 155 c3 625 2 664 -21 680 -12 8
-81 48 -153 88 -160 90 -430 243 -590 334 -66 37 -123 68 -128 68 -4 0 -7
-188 -6 -417z"/>
<path d="M3465 3006 c-28 -19 -547 -310 -680 -381 -60 -32 -127 -69 -147 -82
l-38 -23 0 -388 0 -387 289 -173 c159 -94 296 -174 304 -178 10 -3 74 26 161
73 l145 78 1 389 c0 366 -1 388 -17 381 -10 -3 -76 -38 -148 -77 l-130 -70
-150 77 c-163 85 -177 93 -170 105 3 4 96 56 207 116 112 59 232 124 268 143
36 20 82 45 103 56 l37 20 0 167 c0 93 -3 168 -8 168 -4 0 -16 -6 -27 -14z"/>
<path d="M177 1052 c-63 -3 -67 -4 -57 -23 8 -14 1 -74 -30 -242 -22 -122 -40
-230 -40 -240 0 -16 20 -17 269 -17 248 0 270 1 275 18 3 9 14 71 26 137 11
66 23 128 26 138 4 13 -1 17 -25 17 -16 0 -32 3 -34 8 -3 4 0 35 6 70 l10 63
-33 34 -33 34 -146 3 c-80 2 -176 2 -214 0z m259 -138 c-4 -31 -9 -61 -12 -65
-3 -5 -41 -9 -86 -9 l-80 0 6 48 c13 86 8 82 98 82 l81 0 -7 -56z m36 -159 c5
-5 0 -41 -18 -122 -4 -22 -8 -23 -120 -23 l-117 0 7 50 c14 102 10 100 134
100 60 0 111 -2 114 -5z"/>
<path d="M1018 1052 c-87 -3 -87 -3 -77 -25 8 -18 2 -71 -25 -222 l-36 -199
37 -38 37 -38 191 0 191 0 47 43 47 42 39 215 c21 118 38 216 37 217 -4 4
-146 7 -150 2 -2 -2 -22 -101 -43 -219 l-39 -215 -109 -3 c-59 -1 -112 1 -117
6 -4 4 8 97 27 206 20 109 35 206 33 215 -3 14 -16 16 -90 13z"/>
<path d="M2208 1052 c-21 -2 -38 -6 -38 -10 0 -24 -61 -346 -66 -351 -8 -7 -2
-22 -78 184 l-62 170 -107 3 c-105 3 -107 2 -95 -17 10 -16 5 -61 -30 -253
-23 -128 -42 -237 -42 -241 0 -4 35 -7 77 -5 l78 3 32 178 c17 99 34 181 37
185 3 3 11 -8 16 -24 6 -16 37 -99 68 -184 l57 -155 92 -3 91 -3 5 33 c3 18
22 127 42 243 19 116 37 217 39 227 3 13 -5 17 -38 20 -22 1 -58 2 -78 0z"/>
<path d="M2586 1020 c4 -19 9 -38 11 -42 2 -5 35 -8 74 -8 64 0 69 -2 69 -21
0 -12 -16 -108 -35 -215 -19 -106 -35 -196 -35 -199 0 -3 35 -5 77 -3 l78 3
40 217 39 217 70 3 70 3 7 35 c4 19 6 36 5 37 -1 2 -109 4 -239 5 l-237 3 6
-35z"/>
<path d="M3738 1052 c-10 -2 -23 -48 -43 -160 -15 -86 -33 -184 -39 -217 l-12
-60 -109 -3 c-59 -1 -112 1 -116 5 -6 6 42 315 65 416 4 15 -6 17 -90 17 -90
0 -94 -1 -82 -19 9 -15 4 -59 -24 -222 l-36 -204 36 -37 36 -38 194 0 193 0
45 42 c49 47 42 24 100 348 8 47 17 95 20 107 5 20 2 21 -59 25 -36 1 -71 2
-79 0z"/>
<path d="M4182 1052 c-46 -3 -53 -6 -47 -20 4 -9 7 -24 7 -32 0 -17 -70 -413
-79 -448 -5 -23 -4 -23 73 -20 l79 3 18 100 c11 55 21 106 23 113 2 9 35 12
119 12 85 0 115 -3 115 -12 0 -7 -7 -48 -15 -91 -25 -132 -28 -127 60 -127 41
0 75 3 75 6 0 4 20 118 45 255 25 137 45 251 45 254 0 3 -35 5 -77 3 -88 -3
-79 9 -103 -135 l-12 -73 -114 0 -114 0 0 30 c0 25 7 68 25 156 4 19 0 22 -33
25 -20 2 -61 3 -90 1z"/>
<path d="M5023 1052 c-71 -3 -83 -8 -63 -28 6 -6 -3 -76 -25 -199 -19 -105
-35 -198 -35 -207 0 -9 17 -33 38 -52 l37 -36 227 0 228 0 5 23 c2 12 21 114
41 225 l36 204 -32 33 -33 34 -176 3 c-97 2 -209 2 -248 0z m327 -94 c0 -7
-14 -85 -30 -173 -16 -88 -30 -163 -30 -167 0 -5 -52 -8 -115 -8 -108 0 -115
1 -115 20 0 21 48 307 55 328 3 9 36 12 120 12 85 0 115 -3 115 -12z"/>
<path d="M5857 1052 c-83 -3 -87 -4 -77 -23 8 -14 6 -48 -10 -131 -11 -62 -20
-118 -20 -125 0 -10 42 -13 188 -13 104 0 191 -2 194 -5 5 -5 -4 -66 -17 -122
-5 -23 -6 -23 -199 -23 -210 0 -206 1 -206 -56 l0 -24 270 0 270 0 5 23 c11
48 35 183 35 199 0 9 -15 33 -34 52 l-33 36 -153 0 -152 0 7 58 c4 31 9 60 12
65 2 4 40 7 84 7 78 0 79 0 79 -25 0 -26 0 -26 78 -23 l77 3 3 30 c2 23 -5 37
-30 62 -33 32 -33 32 -158 35 -69 2 -164 2 -213 0z"/>
<path d="M6540 1044 c0 -6 3 -14 8 -18 4 -4 7 -18 7 -29 0 -20 6 -22 75 -27
73 -5 75 -6 72 -30 -2 -14 -17 -99 -33 -190 -16 -91 -29 -177 -29 -192 l0 -28
75 0 c41 0 75 3 75 6 0 8 46 275 63 364 l12 65 68 3 c42 2 69 8 72 15 2 7 6
24 9 39 l6 27 -240 3 c-167 2 -240 0 -240 -8z"/>
<path d="M1523 239 c31 -23 35 -54 10 -81 -16 -18 -16 -18 0 -12 41 15 29 96
-15 107 -22 6 -21 5 5 -14z"/>
<path d="M885 195 c0 -34 4 -55 11 -55 6 0 9 10 7 24 -4 17 0 25 14 29 17 5
17 5 -1 6 -14 1 -17 7 -14 26 3 15 1 25 -6 25 -7 0 -11 -21 -11 -55z"/>
<path d="M945 240 c3 -5 8 -10 11 -10 2 0 4 5 4 10 0 6 -5 10 -11 10 -5 0 -7
-4 -4 -10z"/>
<path d="M1055 195 c0 -30 3 -55 8 -55 4 0 7 21 8 48 l1 47 20 -47 c19 -44 38
-63 38 -38 0 6 -4 10 -9 10 -5 0 -16 19 -23 43 -22 64 -43 60 -43 -8z"/>
<path d="M1154 239 c-3 -6 -2 -14 4 -18 5 -3 12 -15 14 -26 3 -13 6 -7 9 18 5
37 -11 52 -27 26z"/>
<path d="M1295 195 c0 -30 3 -55 8 -55 4 0 7 11 7 24 0 15 7 26 18 29 15 4 15
5 -2 6 -14 1 -17 7 -14 26 3 15 1 25 -6 25 -7 0 -11 -21 -11 -55z"/>
<path d="M1340 246 c0 -2 7 -9 15 -16 13 -11 14 -10 9 4 -5 14 -24 23 -24 12z"/>
<path d="M1459 226 c-14 -30 -5 -72 18 -80 16 -6 16 -6 0 12 -22 24 -22 50 0
74 10 11 12 18 4 18 -6 0 -16 -11 -22 -24z"/>
<path d="M1650 242 c0 -25 34 -102 45 -102 7 0 18 20 24 45 6 25 16 45 21 45
6 0 10 5 10 11 0 25 -26 0 -35 -35 -14 -48 -28 -47 -39 3 -5 23 -13 41 -17 41
-5 0 -9 -4 -9 -8z"/>
<path d="M1810 230 c0 -11 2 -20 4 -20 2 0 6 9 9 20 3 11 1 20 -4 20 -5 0 -9
-9 -9 -20z"/>
<path d="M1930 195 c0 -30 4 -55 9 -55 4 0 6 11 3 25 -3 19 0 25 14 25 17 0
17 1 -1 14 -11 8 -16 19 -12 30 4 9 2 16 -3 16 -6 0 -10 -25 -10 -55z"/>
<path d="M1985 240 c3 -5 8 -10 11 -10 2 0 4 5 4 10 0 6 -5 10 -11 10 -5 0 -7
-4 -4 -10z"/>
<path d="M2100 195 c0 -30 4 -55 9 -55 4 0 6 12 3 26 -4 24 -2 26 21 22 21 -4
27 0 32 19 6 27 0 43 -18 43 -8 0 -7 -3 2 -9 19 -12 6 -43 -16 -39 -11 2 -18
12 -17 26 0 12 -3 22 -8 22 -4 0 -8 -25 -8 -55z"/>
<path d="M2280 234 c0 -8 5 -12 10 -9 6 3 10 10 10 16 0 5 -4 9 -10 9 -5 0
-10 -7 -10 -16z"/>
<path d="M2410 195 c0 -30 3 -55 8 -55 4 0 6 18 4 40 -2 22 0 40 5 40 5 0 19
-18 32 -40 12 -22 26 -40 32 -40 5 0 9 25 9 55 0 30 -3 55 -8 55 -4 0 -6 -18
-4 -40 2 -22 0 -40 -5 -40 -5 0 -19 18 -32 40 -12 22 -26 40 -32 40 -5 0 -9
-25 -9 -55z"/>
<path d="M2610 240 c-8 -5 -12 -11 -10 -14 3 -2 14 2 24 10 22 15 10 19 -14 4z"/>
<path d="M2660 240 c20 -13 33 -13 25 0 -3 6 -14 10 -23 10 -15 0 -15 -2 -2
-10z"/>
<path d="M2914 225 c9 -13 16 -38 16 -55 0 -42 15 -38 16 5 0 20 -5 36 -13 39
-7 3 -13 12 -13 21 0 8 -5 15 -11 15 -7 0 -5 -10 5 -25z"/>
<path d="M2960 239 c0 -5 5 -7 10 -4 6 3 10 8 10 11 0 2 -4 4 -10 4 -5 0 -10
-5 -10 -11z"/>
<path d="M3082 238 c-23 -23 -8 -98 20 -98 6 0 4 8 -5 18 -10 10 -17 27 -17
37 0 10 7 27 17 37 18 20 4 25 -15 6z"/>
<path d="M3131 247 c2 -1 13 -9 24 -17 19 -14 19 -14 6 3 -7 9 -18 17 -24 17
-6 0 -8 -1 -6 -3z"/>
<path d="M3278 205 c2 -26 11 -49 20 -57 14 -10 15 -10 5 2 -7 8 -13 33 -13
57 0 24 -3 43 -8 43 -4 0 -6 -20 -4 -45z"/>
<path d="M3570 225 c0 -14 2 -25 4 -25 2 0 6 11 8 25 3 14 1 25 -3 25 -5 0 -9
-11 -9 -25z"/>
<path d="M3624 237 c11 -8 19 -26 19 -42 0 -16 -8 -34 -19 -42 -10 -7 -13 -13
-6 -13 14 0 42 40 42 61 0 16 -30 49 -45 49 -5 0 -1 -6 9 -13z"/>
<path d="M3755 195 c0 -30 3 -55 8 -55 4 0 7 25 7 55 0 30 -3 55 -7 55 -5 0
-8 -25 -8 -55z"/>
<path d="M3882 238 c-17 -17 -15 -64 4 -82 22 -22 31 -20 11 2 -23 26 -21 58
5 76 16 11 18 16 7 16 -8 0 -20 -5 -27 -12z"/>
<path d="M3940 240 c20 -13 33 -13 25 0 -3 6 -14 10 -23 10 -15 0 -15 -2 -2
-10z"/>
<path d="M4085 195 c0 -30 3 -55 8 -55 4 0 7 25 7 55 0 30 -3 55 -7 55 -5 0
-8 -25 -8 -55z"/>
<path d="M4235 195 c0 -30 5 -55 10 -55 6 0 10 25 10 55 0 30 -4 55 -10 55 -5
0 -10 -25 -10 -55z"/>
<path d="M4285 240 c3 -5 8 -10 11 -10 2 0 4 5 4 10 0 6 -5 10 -11 10 -5 0 -7
-4 -4 -10z"/>
<path d="M4406 241 c-3 -5 1 -12 10 -15 10 -4 14 -14 11 -25 -3 -12 1 -22 9
-25 8 -3 14 -12 14 -21 0 -8 4 -15 9 -15 5 0 0 25 -12 55 -19 53 -30 65 -41
46z"/>
<path d="M4570 195 c0 -30 3 -55 8 -55 4 0 7 25 7 55 0 30 -3 55 -7 55 -5 0
-8 -25 -8 -55z"/>
<path d="M4840 195 c0 -30 4 -55 9 -55 4 0 6 11 3 25 -3 19 0 25 14 25 17 0
17 1 -1 14 -11 8 -16 19 -12 30 4 9 2 16 -3 16 -6 0 -10 -25 -10 -55z"/>
<path d="M4889 241 c9 -6 11 -16 7 -27 -6 -15 -4 -16 5 -7 14 14 5 43 -13 43
-10 0 -9 -3 1 -9z"/>
<path d="M5008 195 c2 -30 7 -55 12 -55 4 0 5 11 2 25 -3 20 0 25 16 25 13 0
22 -9 26 -25 4 -14 11 -25 17 -25 6 0 6 6 -1 20 -5 10 -9 33 -8 51 2 21 -2 33
-12 36 -12 4 -13 3 -1 -5 19 -14 6 -42 -20 -42 -17 0 -20 5 -17 25 3 15 1 25
-6 25 -7 0 -10 -19 -8 -55z"/>
<path d="M5190 239 c0 -5 5 -7 10 -4 6 3 10 8 10 11 0 2 -4 4 -10 4 -5 0 -10
-5 -10 -11z"/>
<path d="M5245 240 c3 -5 8 -10 11 -10 2 0 4 5 4 10 0 6 -5 10 -11 10 -5 0 -7
-4 -4 -10z"/>
<path d="M5354 235 c-8 -19 3 -34 33 -46 19 -7 24 -15 20 -29 -3 -11 -1 -18 4
-14 18 11 8 43 -18 56 -40 20 -43 42 -5 36 17 -2 29 -1 26 4 -9 14 -54 9 -60
-7z"/>
<path d="M5525 240 c4 -6 11 -8 16 -5 14 9 11 15 -7 15 -8 0 -12 -5 -9 -10z"/>
<path d="M5691 195 c0 -65 16 -74 21 -12 l3 42 25 -42 c27 -47 40 -54 40 -23
0 11 -5 19 -12 18 -6 -2 -21 14 -32 34 -30 54 -45 49 -45 -17z"/>
<path d="M5770 235 c0 -8 2 -15 4 -15 2 0 6 7 10 15 3 8 1 15 -4 15 -6 0 -10
-7 -10 -15z"/>
<path d="M5883 224 c-15 -23 -15 -29 -2 -52 8 -14 21 -27 29 -29 10 -3 9 -1
-2 7 -12 7 -18 23 -18 45 0 22 6 38 18 44 9 6 11 11 5 11 -7 0 -20 -12 -30
-26z"/>
<path d="M5940 246 c0 -2 7 -7 16 -10 8 -3 12 -2 9 4 -6 10 -25 14 -25 6z"/>
<path d="M6075 195 c0 -34 4 -55 11 -55 7 0 9 10 6 25 -3 17 0 25 9 25 12 0
12 2 0 9 -8 5 -12 18 -8 30 3 12 0 21 -6 21 -8 0 -12 -20 -12 -55z"/>
<path d="M4387 200 c-7 -28 -6 -32 9 -22 6 4 8 16 4 26 -6 18 -7 18 -13 -4z"/>
<path d="M2281 194 c0 -11 3 -14 6 -6 3 7 2 16 -1 19 -3 4 -6 -2 -5 -13z"/>
<path d="M2591 194 c0 -11 3 -14 6 -6 3 7 2 16 -1 19 -3 4 -6 -2 -5 -13z"/>
<path d="M3171 198 c-1 -10 -10 -27 -21 -38 -11 -11 -16 -20 -10 -20 14 0 43
47 37 62 -4 8 -6 6 -6 -4z"/>
<path d="M5190 200 c0 -5 10 -10 23 -10 18 0 19 2 7 10 -19 13 -30 13 -30 0z"/>
<path d="M5528 174 c-2 -19 0 -34 4 -34 4 0 8 11 8 24 0 13 5 26 12 28 8 3 6
6 -4 10 -12 5 -17 -1 -20 -28z"/>
<path d="M2677 170 c8 -31 23 -34 23 -6 0 16 -6 26 -14 26 -9 0 -12 -7 -9 -20z"/>
<path d="M3946 182 c6 -4 14 -16 18 -27 6 -13 10 -16 13 -7 8 20 -5 42 -24 42
-11 0 -14 -3 -7 -8z"/>
<path d="M1170 155 c0 -8 4 -15 10 -15 5 0 7 7 4 15 -4 8 -8 15 -10 15 -2 0
-4 -7 -4 -15z"/>
<path d="M1780 160 c-8 -5 -11 -12 -7 -16 4 -4 13 -2 19 4 15 15 7 24 -12 12z"/>
<path d="M945 150 c-3 -5 -1 -10 4 -10 6 0 11 5 11 10 0 6 -2 10 -4 10 -3 0
-8 -4 -11 -10z"/>
<path d="M1985 150 c-3 -5 -1 -10 4 -10 6 0 11 5 11 10 0 6 -2 10 -4 10 -3 0
-8 -4 -11 -10z"/>
<path d="M2160 150 c0 -5 5 -10 11 -10 5 0 7 5 4 10 -3 6 -8 10 -11 10 -2 0
-4 -4 -4 -10z"/>
<path d="M2280 150 c0 -5 5 -10 10 -10 6 0 10 5 10 10 0 6 -4 10 -10 10 -5 0
-10 -4 -10 -10z"/>
<path d="M3570 150 c0 -5 5 -10 11 -10 5 0 7 5 4 10 -3 6 -8 10 -11 10 -2 0
-4 -4 -4 -10z"/>
<path d="M4370 150 c0 -5 5 -10 11 -10 5 0 7 5 4 10 -3 6 -8 10 -11 10 -2 0
-4 -4 -4 -10z"/>
<path d="M4625 150 c-3 -5 -1 -10 4 -10 6 0 11 5 11 10 0 6 -2 10 -4 10 -3 0
-8 -4 -11 -10z"/>
<path d="M5190 150 c0 -5 5 -10 11 -10 5 0 7 5 4 10 -3 6 -8 10 -11 10 -2 0
-4 -4 -4 -10z"/>
<path d="M5245 150 c-3 -5 -1 -10 4 -10 6 0 11 5 11 10 0 6 -2 10 -4 10 -3 0
-8 -4 -11 -10z"/>
<path d="M5357 149 c7 -7 15 -10 18 -7 3 3 -2 9 -12 12 -14 6 -15 5 -6 -5z"/>
<path d="M5950 150 c-9 -6 -10 -10 -3 -10 6 0 15 5 18 10 8 12 4 12 -15 0z"/>
<path d="M6135 150 c-3 -5 -1 -10 4 -10 6 0 11 5 11 10 0 6 -2 10 -4 10 -3 0
-8 -4 -11 -10z"/>
</g>
</svg>
